<svg width="14" height="14" viewBox="0 0 14 14" fill="none" xmlns="http://www.w3.org/2000/svg">
<path d="M10.586 6.15704L6.636 2.20704C6.45384 2.01844 6.35305 1.76584 6.35533 1.50364C6.3576 1.24144 6.46277 0.99063 6.64818 0.805222C6.83359 0.619814 7.0844 0.514645 7.3466 0.512367C7.6088 0.510088 7.8614 0.610883 8.05 0.793041L13.707 6.45004C13.8002 6.54269 13.8741 6.65285 13.9246 6.77419C13.9751 6.89552 14.001 7.02563 14.001 7.15704C14.001 7.28845 13.9751 7.41856 13.9246 7.53989C13.8741 7.66123 13.8002 7.77139 13.707 7.86404L8.05 13.521C7.95775 13.6166 7.84741 13.6927 7.7254 13.7451C7.6034 13.7976 7.47218 13.8251 7.3394 13.8263C7.20662 13.8274 7.07494 13.8021 6.95205 13.7519C6.82915 13.7016 6.7175 13.6273 6.62361 13.5334C6.52971 13.4395 6.45546 13.3279 6.40518 13.205C6.3549 13.0821 6.3296 12.9504 6.33075 12.8176C6.3319 12.6849 6.35949 12.5536 6.4119 12.4316C6.46431 12.3096 6.54049 12.1993 6.636 12.107L10.586 8.15704H1C0.734784 8.15704 0.48043 8.05168 0.292893 7.86415C0.105357 7.67661 0 7.42226 0 7.15704C0 6.89182 0.105357 6.63747 0.292893 6.44993C0.48043 6.2624 0.734784 6.15704 1 6.15704H10.586Z" fill="white"/>
</svg>
