<svg width="20" height="20" viewBox="0 0 20 20" fill="none" xmlns="http://www.w3.org/2000/svg">
<path d="M14.0268 0H5.95677C4.37992 0.00185307 2.8682 0.629143 1.75329 1.74424C0.638389 2.85933 0.0113536 4.37115 0.00976563 5.948L0.00976562 14.018C0.0116187 15.5948 0.638908 17.1066 1.754 18.2215C2.8691 19.3364 4.38092 19.9634 5.95777 19.965H14.0278C15.6046 19.9631 17.1163 19.3359 18.2312 18.2208C19.3461 17.1057 19.9732 15.5938 19.9748 14.017V5.947C19.9729 4.37015 19.3456 2.85844 18.2305 1.74353C17.1154 0.628623 15.6036 0.00158794 14.0268 0V0ZM17.9668 14.017C17.9668 14.5344 17.8649 15.0468 17.6669 15.5248C17.4688 16.0028 17.1786 16.4371 16.8128 16.803C16.4469 17.1689 16.0126 17.4591 15.5345 17.6571C15.0565 17.8551 14.5442 17.957 14.0268 17.957H5.95677C4.91199 17.9567 3.91009 17.5415 3.17141 16.8026C2.43273 16.0638 2.01777 15.0618 2.01777 14.017V5.947C2.01803 4.90222 2.43325 3.90032 3.17212 3.16165C3.91098 2.42297 4.91299 2.008 5.95777 2.008H14.0278C15.0725 2.00827 16.0744 2.42349 16.8131 3.16235C17.5518 3.90122 17.9668 4.90322 17.9668 5.948V14.018V14.017Z" fill="#0F172A"/>
<path d="M9.99177 4.81897C8.62319 4.82109 7.3113 5.36576 6.34366 6.33358C5.37603 7.3014 4.83162 8.6134 4.82977 9.98197C4.83135 11.3509 5.37579 12.6633 6.34367 13.6314C7.31154 14.5994 8.62385 15.1441 9.99276 15.146C11.3619 15.1444 12.6744 14.5998 13.6425 13.6317C14.6106 12.6636 15.1552 11.3511 15.1568 9.98197C15.1546 8.61305 14.6097 7.30085 13.6415 6.33316C12.6732 5.36547 11.3607 4.82129 9.99177 4.81997V4.81897ZM9.99177 13.138C9.15501 13.138 8.35252 12.8056 7.76084 12.2139C7.16917 11.6222 6.83677 10.8197 6.83677 9.98297C6.83677 9.14621 7.16917 8.34373 7.76084 7.75205C8.35252 7.16037 9.15501 6.82797 9.99177 6.82797C10.8285 6.82797 11.631 7.16037 12.2227 7.75205C12.8144 8.34373 13.1468 9.14621 13.1468 9.98297C13.1468 10.8197 12.8144 11.6222 12.2227 12.2139C11.631 12.8056 10.8285 13.138 9.99177 13.138Z" fill="#0F172A"/>
<path d="M15.1658 6.09497C15.8489 6.09497 16.4028 5.54115 16.4028 4.85797C16.4028 4.1748 15.8489 3.62097 15.1658 3.62097C14.4826 3.62097 13.9288 4.1748 13.9288 4.85797C13.9288 5.54115 14.4826 6.09497 15.1658 6.09497Z" fill="#0F172A"/>
</svg>
