<svg width="20" height="17" viewBox="0 0 20 17" fill="none" xmlns="http://www.w3.org/2000/svg">
<path d="M20 1.90716C19.2504 2.23454 18.4565 2.4492 17.644 2.54416C18.4968 2.0434 19.138 1.24927 19.448 0.310164C18.64 0.780492 17.7587 1.11177 16.841 1.29016C16.4545 0.88537 15.9897 0.563551 15.4748 0.344342C14.9598 0.125133 14.4056 0.0131294 13.846 0.0151639C11.58 0.0151639 9.743 1.82516 9.743 4.05516C9.743 4.37116 9.779 4.68016 9.849 4.97516C8.22358 4.89786 6.63212 4.48257 5.17617 3.7558C3.72022 3.02903 2.43176 2.00674 1.393 0.754164C1.02883 1.36857 0.837415 2.06994 0.839 2.78416C0.839697 3.45213 1.00683 4.10939 1.32529 4.69656C1.64375 5.28372 2.1035 5.78228 2.663 6.14716C2.01248 6.12616 1.37602 5.95249 0.805 5.64016V5.69016C0.805 7.64816 2.22 9.28116 4.095 9.65316C3.74261 9.74666 3.37958 9.79406 3.015 9.79416C2.75 9.79416 2.493 9.76916 2.242 9.71916C2.51008 10.5271 3.02311 11.2315 3.70982 11.7345C4.39653 12.2375 5.22284 12.5142 6.074 12.5262C4.61407 13.6507 2.82182 14.2582 0.979 14.2532C0.647 14.2532 0.321 14.2332 0 14.1972C1.88125 15.3879 4.06259 16.0184 6.289 16.0152C13.836 16.0152 17.962 9.85816 17.962 4.51916L17.948 3.99616C18.7529 3.42983 19.4481 2.72201 20 1.90716Z" fill="#0F172A"/>
</svg>
