<svg width="375" height="380" viewBox="0 0 375 380" fill="none" xmlns="http://www.w3.org/2000/svg">
<path d="M242.5 228C242.5 310.813 188.304 377 122.5 377C56.6958 377 2.5 310.813 2.5 228C2.5 145.187 56.6958 79 122.5 79C188.304 79 242.5 145.187 242.5 228Z" stroke="#9333EA" stroke-width="5"/>
<path d="M205.5 253.5C205.5 300.209 168.299 338 122.5 338C76.7012 338 39.5 300.209 39.5 253.5C39.5 206.791 76.7012 169 122.5 169C168.299 169 205.5 206.791 205.5 253.5Z" stroke="#D8B4FE" stroke-width="5"/>
<path d="M196 252.5C196 242.782 194.125 233.16 190.481 224.181C186.838 215.203 181.497 207.046 174.765 200.174C168.033 193.303 160.041 187.852 151.245 184.133C142.448 180.414 133.021 178.5 123.5 178.5V252.5H196Z" fill="#C2410C"/>
<rect x="125.5" y="3" width="247" height="247" stroke="#581C87" stroke-width="5"/>
</svg>
