<svg width="177" height="32" viewBox="0 0 177 32" fill="none" xmlns="http://www.w3.org/2000/svg">
<path d="M23.4828 26.4845L2.07016 11.714C-0.099749 10.2173 0.637877 7.10088 3.3437 6.36802L26.1015 0.191307C26.5836 0.0173566 27.1001 -0.0391112 27.6085 0.0265948C28.1167 0.0923008 28.602 0.278283 29.024 0.569108C29.446 0.859932 29.7926 1.24721 30.0349 1.6988C30.2772 2.15038 30.4083 2.65326 30.4174 3.16568L29.0687 24.1116C28.9087 26.5978 25.6527 27.9812 23.4828 26.4845Z" fill="white"/>
<path d="M16.6914 30.1304L4.07652 5.46055C3.78815 4.89618 3.66126 4.26312 3.70983 3.63121C3.75839 2.9993 3.98054 2.39308 4.35175 1.8794C4.72298 1.36572 5.22885 0.96454 5.81359 0.720098C6.39833 0.475655 7.03922 0.397452 7.66558 0.494119L31.044 4.10227C31.5822 4.18535 32.0931 4.395 32.5346 4.71398C32.9759 5.03297 33.3353 5.45218 33.5832 5.93714C33.831 6.4221 33.9603 6.95895 33.9602 7.50358C33.96 8.04819 33.8307 8.58502 33.5828 9.0699L22.8132 30.1316C22.524 30.6943 22.0852 31.1665 21.5451 31.4961C21.005 31.8257 20.3846 32 19.7519 31.9999C19.1192 31.9997 18.4988 31.8252 17.9588 31.4955C17.4188 31.1656 16.9803 30.6933 16.6914 30.1304Z" fill="white"/>
<path d="M24.3809 8.72693L19.8921 8L14.3809 9.57011L16.5807 14.0856L21.7319 17.8153C21.8456 17.8966 21.9706 17.959 22.1024 18L24.059 13.9852L24.3809 8.72693Z" fill="#0F172A"/>
<path d="M52.3662 19.5352C52.3662 19.2305 52.3193 18.957 52.2256 18.7148C52.1396 18.4648 51.9756 18.2383 51.7334 18.0352C51.4912 17.8242 51.1514 17.6172 50.7139 17.4141C50.2764 17.2109 49.71 17 49.0146 16.7812C48.2412 16.5312 47.5068 16.25 46.8115 15.9375C46.124 15.625 45.5146 15.2617 44.9834 14.8477C44.46 14.4258 44.0459 13.9375 43.7412 13.3828C43.4443 12.8281 43.2959 12.1836 43.2959 11.4492C43.2959 10.7383 43.4521 10.0938 43.7646 9.51562C44.0771 8.92969 44.5146 8.42969 45.0771 8.01562C45.6396 7.59375 46.3037 7.26953 47.0693 7.04297C47.8428 6.81641 48.6904 6.70312 49.6123 6.70312C50.8701 6.70312 51.9678 6.92969 52.9053 7.38281C53.8428 7.83594 54.5693 8.45703 55.085 9.24609C55.6084 10.0352 55.8701 10.9375 55.8701 11.9531H52.3779C52.3779 11.4531 52.2725 11.0156 52.0615 10.6406C51.8584 10.2578 51.5459 9.95703 51.124 9.73828C50.71 9.51953 50.1865 9.41016 49.5537 9.41016C48.9443 9.41016 48.4365 9.50391 48.0303 9.69141C47.624 9.87109 47.3193 10.1172 47.1162 10.4297C46.9131 10.7344 46.8115 11.0781 46.8115 11.4609C46.8115 11.75 46.8818 12.0117 47.0225 12.2461C47.1709 12.4805 47.3896 12.6992 47.6787 12.9023C47.9678 13.1055 48.3232 13.2969 48.7451 13.4766C49.167 13.6562 49.6553 13.832 50.21 14.0039C51.1396 14.2852 51.9561 14.6016 52.6592 14.9531C53.3701 15.3047 53.9639 15.6992 54.4404 16.1367C54.917 16.5742 55.2764 17.0703 55.5186 17.625C55.7607 18.1797 55.8818 18.8086 55.8818 19.5117C55.8818 20.2539 55.7373 20.918 55.4482 21.5039C55.1592 22.0898 54.7412 22.5859 54.1943 22.9922C53.6475 23.3984 52.9951 23.707 52.2373 23.918C51.4795 24.1289 50.6318 24.2344 49.6943 24.2344C48.8506 24.2344 48.0186 24.125 47.1982 23.9062C46.3779 23.6797 45.6318 23.3398 44.96 22.8867C44.2959 22.4336 43.7646 21.8555 43.3662 21.1523C42.9678 20.4492 42.7686 19.6172 42.7686 18.6562H46.2959C46.2959 19.1875 46.3779 19.6367 46.542 20.0039C46.7061 20.3711 46.9365 20.668 47.2334 20.8945C47.5381 21.1211 47.8975 21.2852 48.3115 21.3867C48.7334 21.4883 49.1943 21.5391 49.6943 21.5391C50.3037 21.5391 50.8037 21.4531 51.1943 21.2812C51.5928 21.1094 51.8857 20.8711 52.0732 20.5664C52.2686 20.2617 52.3662 19.918 52.3662 19.5352ZM61.4365 13.9453V24H58.0498V11.3203H61.2256L61.4365 13.9453ZM60.9678 17.2148H60.0303C60.0303 16.332 60.1357 15.5195 60.3467 14.7773C60.5654 14.0273 60.8818 13.3789 61.2959 12.832C61.7178 12.2773 62.2373 11.8477 62.8545 11.543C63.4717 11.2383 64.1865 11.0859 64.999 11.0859C65.5615 11.0859 66.0771 11.1719 66.5459 11.3438C67.0146 11.5078 67.417 11.7695 67.7529 12.1289C68.0967 12.4805 68.3623 12.9414 68.5498 13.5117C68.7373 14.0742 68.8311 14.75 68.8311 15.5391V24H65.4561V15.9141C65.4561 15.3359 65.3779 14.8906 65.2217 14.5781C65.0654 14.2656 64.8428 14.0469 64.5537 13.9219C64.2725 13.7969 63.9326 13.7344 63.5342 13.7344C63.0967 13.7344 62.7139 13.8242 62.3857 14.0039C62.0654 14.1836 61.7998 14.4336 61.5889 14.7539C61.3779 15.0664 61.2217 15.4336 61.1201 15.8555C61.0186 16.2773 60.9678 16.7305 60.9678 17.2148ZM68.5146 16.8281L67.3076 16.9805C67.3076 16.1523 67.4092 15.3828 67.6123 14.6719C67.8232 13.9609 68.1318 13.3359 68.5381 12.7969C68.9521 12.2578 69.4639 11.8398 70.0732 11.543C70.6826 11.2383 71.3857 11.0859 72.1826 11.0859C72.792 11.0859 73.3467 11.1758 73.8467 11.3555C74.3467 11.5273 74.7725 11.8047 75.124 12.1875C75.4834 12.5625 75.7568 13.0547 75.9443 13.6641C76.1396 14.2734 76.2373 15.0195 76.2373 15.9023V24H72.8506V15.9023C72.8506 15.3164 72.7725 14.8711 72.6162 14.5664C72.4678 14.2539 72.249 14.0391 71.96 13.9219C71.6787 13.7969 71.3428 13.7344 70.9521 13.7344C70.5459 13.7344 70.1904 13.8164 69.8857 13.9805C69.5811 14.1367 69.3271 14.3555 69.124 14.6367C68.9209 14.918 68.7686 15.2461 68.667 15.6211C68.5654 15.9883 68.5146 16.3906 68.5146 16.8281ZM85.6943 21.1406V15.4922C85.6943 15.0859 85.6279 14.7383 85.4951 14.4492C85.3623 14.1523 85.1553 13.9219 84.874 13.7578C84.6006 13.5938 84.2451 13.5117 83.8076 13.5117C83.4326 13.5117 83.1084 13.5781 82.835 13.7109C82.5615 13.8359 82.3506 14.0195 82.2021 14.2617C82.0537 14.4961 81.9795 14.7734 81.9795 15.0938H78.6045C78.6045 14.5547 78.7295 14.043 78.9795 13.5586C79.2295 13.0742 79.5928 12.6484 80.0693 12.2812C80.5459 11.9062 81.1123 11.6133 81.7686 11.4023C82.4326 11.1914 83.1748 11.0859 83.9951 11.0859C84.9795 11.0859 85.8545 11.25 86.6201 11.5781C87.3857 11.9062 87.9873 12.3984 88.4248 13.0547C88.8701 13.7109 89.0928 14.5312 89.0928 15.5156V20.9414C89.0928 21.6367 89.1357 22.207 89.2217 22.6523C89.3076 23.0898 89.4326 23.4727 89.5967 23.8008V24H86.1865C86.0225 23.6562 85.8975 23.2266 85.8115 22.7109C85.7334 22.1875 85.6943 21.6641 85.6943 21.1406ZM86.1396 16.2773L86.1631 18.1875H84.2764C83.8311 18.1875 83.4443 18.2383 83.1162 18.3398C82.7881 18.4414 82.5186 18.5859 82.3076 18.7734C82.0967 18.9531 81.9404 19.1641 81.8389 19.4062C81.7451 19.6484 81.6982 19.9141 81.6982 20.2031C81.6982 20.4922 81.7646 20.7539 81.8975 20.9883C82.0303 21.2148 82.2217 21.3945 82.4717 21.5273C82.7217 21.6523 83.0146 21.7148 83.3506 21.7148C83.8584 21.7148 84.2998 21.6133 84.6748 21.4102C85.0498 21.207 85.3389 20.957 85.542 20.6602C85.7529 20.3633 85.8623 20.082 85.8701 19.8164L86.7607 21.2461C86.6357 21.5664 86.4639 21.8984 86.2451 22.2422C86.0342 22.5859 85.7646 22.9102 85.4365 23.2148C85.1084 23.5117 84.7139 23.7578 84.2529 23.9531C83.792 24.1406 83.2451 24.2344 82.6123 24.2344C81.8076 24.2344 81.0771 24.0742 80.4209 23.7539C79.7725 23.4258 79.2568 22.9766 78.874 22.4062C78.499 21.8281 78.3115 21.1719 78.3115 20.4375C78.3115 19.7734 78.4365 19.1836 78.6865 18.668C78.9365 18.1523 79.3037 17.7188 79.7881 17.3672C80.2803 17.0078 80.8936 16.7383 81.6279 16.5586C82.3623 16.3711 83.2139 16.2773 84.1826 16.2773H86.1396ZM95.0693 14.0859V24H91.6943V11.3203H94.8701L95.0693 14.0859ZM98.8896 11.2383L98.8311 14.3672C98.667 14.3438 98.4678 14.3242 98.2334 14.3086C98.0068 14.2852 97.7998 14.2734 97.6123 14.2734C97.1357 14.2734 96.7217 14.3359 96.3701 14.4609C96.0264 14.5781 95.7373 14.7539 95.5029 14.9883C95.2764 15.2227 95.1045 15.5078 94.9873 15.8438C94.8779 16.1797 94.8154 16.5625 94.7998 16.9922L94.1201 16.7812C94.1201 15.9609 94.2021 15.207 94.3662 14.5195C94.5303 13.8242 94.7686 13.2188 95.0811 12.7031C95.4014 12.1875 95.792 11.7891 96.2529 11.5078C96.7139 11.2266 97.2412 11.0859 97.835 11.0859C98.0225 11.0859 98.2139 11.1016 98.4092 11.1328C98.6045 11.1562 98.7646 11.1914 98.8896 11.2383ZM107.28 11.3203V13.7109H99.8975V11.3203H107.28ZM101.726 8.19141H105.101V20.1797C105.101 20.5469 105.147 20.8281 105.241 21.0234C105.343 21.2188 105.491 21.3555 105.687 21.4336C105.882 21.5039 106.128 21.5391 106.425 21.5391C106.636 21.5391 106.823 21.5312 106.987 21.5156C107.159 21.4922 107.304 21.4688 107.421 21.4453L107.433 23.9297C107.144 24.0234 106.831 24.0977 106.495 24.1523C106.159 24.207 105.788 24.2344 105.382 24.2344C104.64 24.2344 103.991 24.1133 103.437 23.8711C102.89 23.6211 102.468 23.2227 102.171 22.6758C101.874 22.1289 101.726 21.4102 101.726 20.5195V8.19141ZM112.929 6.9375V24H109.413V6.9375H112.929ZM119.726 14.2266V16.9688H111.968V14.2266H119.726ZM120.546 6.9375V9.69141H111.968V6.9375H120.546ZM125.937 11.3203V24H122.55V11.3203H125.937ZM122.339 8.01562C122.339 7.52344 122.511 7.11719 122.854 6.79688C123.198 6.47656 123.659 6.31641 124.237 6.31641C124.808 6.31641 125.265 6.47656 125.608 6.79688C125.96 7.11719 126.136 7.52344 126.136 8.01562C126.136 8.50781 125.96 8.91406 125.608 9.23438C125.265 9.55469 124.808 9.71484 124.237 9.71484C123.659 9.71484 123.198 9.55469 122.854 9.23438C122.511 8.91406 122.339 8.50781 122.339 8.01562ZM132.03 14.0273V24H128.655V11.3203H131.819L132.03 14.0273ZM131.538 17.2148H130.624C130.624 16.2773 130.745 15.4336 130.987 14.6836C131.229 13.9258 131.569 13.2812 132.007 12.75C132.444 12.2109 132.964 11.8008 133.565 11.5195C134.175 11.2305 134.854 11.0859 135.604 11.0859C136.198 11.0859 136.741 11.1719 137.233 11.3438C137.726 11.5156 138.147 11.7891 138.499 12.1641C138.858 12.5391 139.132 13.0352 139.319 13.6523C139.515 14.2695 139.612 15.0234 139.612 15.9141V24H136.214V15.9023C136.214 15.3398 136.136 14.9023 135.979 14.5898C135.823 14.2773 135.593 14.0586 135.288 13.9336C134.991 13.8008 134.624 13.7344 134.187 13.7344C133.733 13.7344 133.339 13.8242 133.003 14.0039C132.675 14.1836 132.401 14.4336 132.183 14.7539C131.972 15.0664 131.812 15.4336 131.702 15.8555C131.593 16.2773 131.538 16.7305 131.538 17.2148ZM149.667 21.2344V6H153.065V24H150.007L149.667 21.2344ZM141.651 17.8125V17.5664C141.651 16.5977 141.761 15.7188 141.979 14.9297C142.198 14.1328 142.519 13.4492 142.94 12.8789C143.362 12.3086 143.882 11.8672 144.499 11.5547C145.116 11.2422 145.819 11.0859 146.608 11.0859C147.351 11.0859 147.999 11.2422 148.554 11.5547C149.116 11.8672 149.593 12.3125 149.983 12.8906C150.382 13.4609 150.702 14.1367 150.944 14.918C151.187 15.6914 151.362 16.5391 151.472 17.4609V18C151.362 18.8828 151.187 19.7031 150.944 20.4609C150.702 21.2188 150.382 21.8828 149.983 22.4531C149.593 23.0156 149.116 23.4531 148.554 23.7656C147.991 24.0781 147.335 24.2344 146.585 24.2344C145.796 24.2344 145.093 24.0742 144.476 23.7539C143.866 23.4336 143.351 22.9844 142.929 22.4062C142.515 21.8281 142.198 21.1484 141.979 20.3672C141.761 19.5859 141.651 18.7344 141.651 17.8125ZM145.026 17.5664V17.8125C145.026 18.3359 145.065 18.8242 145.144 19.2773C145.229 19.7305 145.366 20.1328 145.554 20.4844C145.749 20.8281 145.999 21.0977 146.304 21.293C146.616 21.4805 146.995 21.5742 147.44 21.5742C148.019 21.5742 148.495 21.4453 148.87 21.1875C149.245 20.9219 149.53 20.5586 149.726 20.0977C149.929 19.6367 150.046 19.1055 150.077 18.5039V16.9688C150.054 16.4766 149.983 16.0352 149.866 15.6445C149.757 15.2461 149.593 14.9062 149.374 14.625C149.163 14.3438 148.897 14.125 148.577 13.9688C148.265 13.8125 147.894 13.7344 147.464 13.7344C147.026 13.7344 146.651 13.8359 146.339 14.0391C146.026 14.2344 145.772 14.5039 145.577 14.8477C145.39 15.1914 145.249 15.5977 145.155 16.0664C145.069 16.5273 145.026 17.0273 145.026 17.5664ZM161.538 24.2344C160.554 24.2344 159.671 24.0781 158.89 23.7656C158.108 23.4453 157.444 23.0039 156.897 22.4414C156.358 21.8789 155.944 21.2266 155.655 20.4844C155.366 19.7344 155.222 18.9375 155.222 18.0938V17.625C155.222 16.6641 155.358 15.7852 155.632 14.9883C155.905 14.1914 156.296 13.5 156.804 12.9141C157.319 12.3281 157.944 11.8789 158.679 11.5664C159.413 11.2461 160.241 11.0859 161.163 11.0859C162.062 11.0859 162.858 11.2344 163.554 11.5312C164.249 11.8281 164.831 12.25 165.3 12.7969C165.776 13.3438 166.136 14 166.378 14.7656C166.62 15.5234 166.741 16.3672 166.741 17.2969V18.7031H156.663V16.4531H163.425V16.1953C163.425 15.7266 163.339 15.3086 163.167 14.9414C163.003 14.5664 162.753 14.2695 162.417 14.0508C162.081 13.832 161.651 13.7227 161.128 13.7227C160.683 13.7227 160.3 13.8203 159.979 14.0156C159.659 14.2109 159.397 14.4844 159.194 14.8359C158.999 15.1875 158.851 15.6016 158.749 16.0781C158.655 16.5469 158.608 17.0625 158.608 17.625V18.0938C158.608 18.6016 158.679 19.0703 158.819 19.5C158.968 19.9297 159.175 20.3008 159.44 20.6133C159.714 20.9258 160.042 21.168 160.425 21.3398C160.815 21.5117 161.257 21.5977 161.749 21.5977C162.358 21.5977 162.925 21.4805 163.448 21.2461C163.979 21.0039 164.437 20.6406 164.819 20.1562L166.46 21.9375C166.194 22.3203 165.831 22.6875 165.37 23.0391C164.917 23.3906 164.37 23.6797 163.729 23.9062C163.089 24.125 162.358 24.2344 161.538 24.2344ZM172.038 14.0859V24H168.663V11.3203H171.839L172.038 14.0859ZM175.858 11.2383L175.8 14.3672C175.636 14.3438 175.437 14.3242 175.202 14.3086C174.976 14.2852 174.769 14.2734 174.581 14.2734C174.104 14.2734 173.69 14.3359 173.339 14.4609C172.995 14.5781 172.706 14.7539 172.472 14.9883C172.245 15.2227 172.073 15.5078 171.956 15.8438C171.847 16.1797 171.784 16.5625 171.769 16.9922L171.089 16.7812C171.089 15.9609 171.171 15.207 171.335 14.5195C171.499 13.8242 171.737 13.2188 172.05 12.7031C172.37 12.1875 172.761 11.7891 173.222 11.5078C173.683 11.2266 174.21 11.0859 174.804 11.0859C174.991 11.0859 175.183 11.1016 175.378 11.1328C175.573 11.1562 175.733 11.1914 175.858 11.2383Z" fill="white"/>
</svg>
