<svg width="350" height="750" viewBox="0 0 350 750" fill="none" xmlns="http://www.w3.org/2000/svg">
<g clip-path="url(#clip0_5144_3803)">
<path d="M0 0H350V750H0V0Z" fill="#DBEAFE"/>
<path d="M256 533C256 559.51 234.51 581 208 581C181.49 581 160 559.51 160 533C160 506.49 181.49 485 208 485C234.51 485 256 506.49 256 533Z" fill="white"/>
<path fill-rule="evenodd" clip-rule="evenodd" d="M208 578C232.853 578 253 557.853 253 533C253 508.147 232.853 488 208 488C183.147 488 163 508.147 163 533C163 557.853 183.147 578 208 578ZM208 581C234.51 581 256 559.51 256 533C256 506.49 234.51 485 208 485C181.49 485 160 506.49 160 533C160 559.51 181.49 581 208 581Z" fill="#BFDBFE"/>
<path d="M384 533C384 559.51 362.51 581 336 581C309.49 581 288 559.51 288 533C288 506.49 309.49 485 336 485C362.51 485 384 506.49 384 533Z" fill="#BFDBFE"/>
<path fill-rule="evenodd" clip-rule="evenodd" d="M336 578C360.853 578 381 557.853 381 533C381 508.147 360.853 488 336 488C311.147 488 291 508.147 291 533C291 557.853 311.147 578 336 578ZM336 581C362.51 581 384 559.51 384 533C384 506.49 362.51 485 336 485C309.49 485 288 506.49 288 533C288 559.51 309.49 581 336 581Z" fill="white"/>
<path d="M128 533C128 559.51 106.51 581 80 581C53.4903 581 32 559.51 32 533C32 506.49 53.4903 485 80 485C106.51 485 128 506.49 128 533Z" fill="#FACC15"/>
<path fill-rule="evenodd" clip-rule="evenodd" d="M80 578C104.853 578 125 557.853 125 533C125 508.147 104.853 488 80 488C55.1472 488 35 508.147 35 533C35 557.853 55.1472 578 80 578ZM80 581C106.51 581 128 559.51 128 533C128 506.49 106.51 485 80 485C53.4903 485 32 506.49 32 533C32 559.51 53.4903 581 80 581Z" fill="white"/>
<path d="M32 453C32 448.582 35.5817 445 40 445H110C114.418 445 118 448.582 118 453C118 457.418 114.418 461 110 461H40C35.5817 461 32 457.418 32 453Z" fill="#BFDBFE"/>
<path d="M134 453C134 448.582 137.582 445 142 445H174C178.418 445 182 448.582 182 453C182 457.418 178.418 461 174 461H142C137.582 461 134 457.418 134 453Z" fill="#BFDBFE"/>
<path fill-rule="evenodd" clip-rule="evenodd" d="M274.5 287.561C274.559 281.857 279.09 277 284.914 277C288.489 277 291.118 278.769 292.796 280.436C293.263 280.899 293.664 281.362 294 281.789C294.336 281.362 294.737 280.899 295.204 280.436C296.882 278.769 299.511 277 303.086 277C308.91 277 313.441 281.857 313.5 287.561L313.5 287.561C313.611 298.685 304.672 306.382 295.687 312.481C295.19 312.819 294.602 313 294 313C293.398 313 292.81 312.819 292.312 312.481C283.327 306.382 274.388 298.685 274.5 287.561L274.5 287.561ZM295.34 285.175C295.085 285.681 294.567 286 294 286C293.433 286 292.915 285.681 292.66 285.175C292.66 285.174 292.659 285.173 292.658 285.171C292.657 285.167 292.654 285.162 292.649 285.154C292.647 285.149 292.644 285.144 292.642 285.139C292.625 285.107 292.597 285.056 292.557 284.987C292.479 284.85 292.356 284.646 292.189 284.397C291.854 283.896 291.351 283.228 290.682 282.564C289.339 281.231 287.425 280 284.914 280C280.845 280 277.543 283.419 277.5 287.591M295.34 285.175C295.34 285.174 295.341 285.173 295.342 285.171C295.344 285.166 295.35 285.155 295.358 285.139C295.375 285.107 295.403 285.056 295.443 284.987C295.521 284.85 295.644 284.646 295.811 284.397C296.146 283.896 296.649 283.228 297.318 282.564C298.661 281.231 300.575 280 303.086 280C307.155 280 310.457 283.419 310.5 287.591C310.594 296.965 303.065 303.847 294.001 309.999L294 310L293.999 309.999C284.934 303.847 277.406 296.965 277.5 287.591" fill="white"/>
<path d="M32 295C32 290.582 35.5817 287 40 287H94C98.4183 287 102 290.582 102 295C102 299.418 98.4183 303 94 303H40C35.5817 303 32 299.418 32 295Z" fill="#BFDBFE"/>
<path d="M118 295C118 290.582 121.582 287 126 287H216C220.418 287 224 290.582 224 295C224 299.418 220.418 303 216 303H126C121.582 303 118 299.418 118 295Z" fill="#BFDBFE"/>
<path d="M32 333C32 329.686 34.6863 327 38 327H122C125.314 327 128 329.686 128 333C128 336.314 125.314 339 122 339H38C34.6863 339 32 336.314 32 333Z" fill="white"/>
<path d="M32 361C32 357.686 34.6863 355 38 355H167C170.314 355 173 357.686 173 361C173 364.314 170.314 367 167 367H38C34.6863 367 32 364.314 32 361Z" fill="white"/>
<path d="M144 333C144 329.686 146.686 327 150 327H250C253.314 327 256 329.686 256 333C256 336.314 253.314 339 250 339H150C146.686 339 144 336.314 144 333Z" fill="white"/>
<path d="M32 63C32 51.9543 40.9543 43 52 43H298C309.046 43 318 51.9543 318 63V219C318 230.046 309.046 239 298 239H52C40.9543 239 32 230.046 32 219V63Z" fill="white"/>
<mask id="mask0_5144_3803" style="mask-type:alpha" maskUnits="userSpaceOnUse" x="32" y="43" width="286" height="196">
<path d="M32 63C32 51.9543 40.9543 43 52 43H298C309.046 43 318 51.9543 318 63V219C318 230.046 309.046 239 298 239H52C40.9543 239 32 230.046 32 219V63Z" fill="white"/>
</mask>
<g mask="url(#mask0_5144_3803)">
<path d="M32 43H208L32 211V43Z" fill="#BFDBFE"/>
<path d="M364 219C364 253.242 336.242 281 302 281C267.758 281 240 253.242 240 219C240 184.758 267.758 157 302 157C336.242 157 364 184.758 364 219Z" fill="#FACC15"/>
<path d="M302 166C302 200.794 273.794 229 239 229C204.206 229 176 200.794 176 166C176 131.206 204.206 103 239 103C273.794 103 302 131.206 302 166Z" fill="white"/>
<path fill-rule="evenodd" clip-rule="evenodd" d="M239 219C268.271 219 292 195.271 292 166C292 136.729 268.271 113 239 113C209.729 113 186 136.729 186 166C186 195.271 209.729 219 239 219ZM239 229C273.794 229 302 200.794 302 166C302 131.206 273.794 103 239 103C204.206 103 176 131.206 176 166C176 200.794 204.206 229 239 229Z" fill="#DBEAFE"/>
</g>
<mask id="path-23-inside-1_5144_3803" fill="white">
<path d="M0 654H350V750H0V654Z"/>
</mask>
<path d="M0 657H350V651H0V657Z" fill="white" mask="url(#path-23-inside-1_5144_3803)"/>
<path fill-rule="evenodd" clip-rule="evenodd" d="M48.5599 682.501C49.27 682.53 49.8628 683.052 49.9796 683.753L54.8857 713.19L59.0577 698.588C59.2384 697.956 59.8099 697.515 60.4674 697.5C61.1249 697.486 61.7151 697.902 61.923 698.526L64.5811 706.5H69.5C70.3284 706.5 71 707.172 71 708C71 708.828 70.3284 709.5 69.5 709.5H63.5C62.8544 709.5 62.2811 709.087 62.077 708.474L60.6103 704.074L55.9423 720.412C55.7496 721.086 55.1154 721.537 54.4152 721.498C53.715 721.458 53.1357 720.938 53.0204 720.247L48.2061 691.36L43.9552 708.364C43.7883 709.032 43.1883 709.5 42.5 709.5H36.5C35.6716 709.5 35 708.828 35 708C35 707.172 35.6716 706.5 36.5 706.5H41.3288L47.0448 683.636C47.2172 682.947 47.8497 682.473 48.5599 682.501Z" fill="white"/>
<path fill-rule="evenodd" clip-rule="evenodd" d="M72.5 706.5C71.6716 706.5 71 707.172 71 708C71 708.828 71.6716 709.5 72.5 709.5C73.3284 709.5 74 708.828 74 708C74 707.172 73.3284 706.5 72.5 706.5ZM68 708C68 705.515 70.0147 703.5 72.5 703.5C74.9853 703.5 77 705.515 77 708C77 710.485 74.9853 712.5 72.5 712.5C70.0147 712.5 68 710.485 68 708Z" fill="white"/>
<path fill-rule="evenodd" clip-rule="evenodd" d="M162.712 685.235C165.38 683.452 168.518 682.5 171.727 682.5V684L171.727 682.5C176.031 682.5 180.158 684.21 183.201 687.253C186.244 690.296 187.954 694.423 187.954 698.727V698.727C187.954 701.937 187.003 705.074 185.22 707.743C183.437 710.411 180.902 712.491 177.937 713.719C174.972 714.947 171.709 715.269 168.561 714.643C165.414 714.016 162.522 712.471 160.253 710.202C157.983 707.932 156.438 705.041 155.812 701.893C155.186 698.745 155.507 695.482 156.735 692.517C157.963 689.552 160.043 687.018 162.712 685.235ZM171.727 685.5C175.235 685.5 178.599 686.894 181.08 689.374C183.56 691.855 184.954 695.219 184.954 698.727M171.727 685.5C169.111 685.5 166.554 686.276 164.379 687.729C162.203 689.183 160.508 691.248 159.507 693.665C158.506 696.082 158.244 698.742 158.754 701.308C159.265 703.874 160.524 706.23 162.374 708.08C164.224 709.93 166.581 711.19 169.147 711.7C171.713 712.211 174.372 711.949 176.789 710.948C179.206 709.946 181.272 708.251 182.725 706.076C184.179 703.901 184.954 701.343 184.954 698.727" fill="white"/>
<path fill-rule="evenodd" clip-rule="evenodd" d="M181.654 708.654C182.24 708.068 183.19 708.068 183.776 708.654L194.061 718.939C194.647 719.525 194.647 720.475 194.061 721.061C193.475 721.647 192.525 721.647 191.939 721.061L181.654 710.776C181.068 710.19 181.068 709.24 181.654 708.654Z" fill="white"/>
<path fill-rule="evenodd" clip-rule="evenodd" d="M276 693C276 692.172 276.672 691.5 277.5 691.5H310.5C311.328 691.5 312 692.172 312 693C312 693.828 311.328 694.5 310.5 694.5H277.5C276.672 694.5 276 693.828 276 693Z" fill="white"/>
<path fill-rule="evenodd" clip-rule="evenodd" d="M276 702C276 701.172 276.672 700.5 277.5 700.5H310.5C311.328 700.5 312 701.172 312 702C312 702.828 311.328 703.5 310.5 703.5H277.5C276.672 703.5 276 702.828 276 702Z" fill="white"/>
<path fill-rule="evenodd" clip-rule="evenodd" d="M276 711C276 710.172 276.672 709.5 277.5 709.5H310.5C311.328 709.5 312 710.172 312 711C312 711.828 311.328 712.5 310.5 712.5H277.5C276.672 712.5 276 711.828 276 711Z" fill="white"/>
</g>
<defs>
<clipPath id="clip0_5144_3803">
<rect width="350" height="750" rx="50" fill="white"/>
</clipPath>
</defs>
</svg>
