<svg width="1100" height="702" viewBox="0 0 1100 702" fill="none" xmlns="http://www.w3.org/2000/svg">
<g clip-path="url(#clip0_5139_3718)">
<rect width="1100" height="702" rx="20" fill="white"/>
<path d="M21.0002 24.6938C18.6989 24.6938 16.8335 22.8283 16.8335 20.5271C16.8335 18.2258 18.6989 16.3604 21.0002 16.3604C23.3014 16.3604 25.1668 18.2258 25.1668 20.5271C25.1668 22.8283 23.3014 24.6938 21.0002 24.6938Z" fill="#E11D48"/>
<path d="M36.0002 24.6938C33.6989 24.6938 31.8335 22.8283 31.8335 20.5271C31.8335 18.2258 33.6989 16.3604 36.0002 16.3604C38.3014 16.3604 40.1668 18.2258 40.1668 20.5271C40.1668 22.8283 38.3014 24.6938 36.0002 24.6938Z" fill="#FBBF24"/>
<path d="M51.0002 24.6938C48.6989 24.6938 46.8335 22.8283 46.8335 20.5271C46.8335 18.2258 48.6989 16.3604 51.0002 16.3604C53.3014 16.3604 55.1668 18.2258 55.1668 20.5271C55.1668 22.8283 53.3014 24.6938 51.0002 24.6938Z" fill="#22C55E"/>
<path d="M1041.76 20.5L1046.71 25.45C1046.8 25.5422 1046.88 25.6526 1046.93 25.7746C1046.98 25.8966 1047.01 26.0278 1047.01 26.1606C1047.01 26.2934 1046.99 26.4251 1046.94 26.548C1046.89 26.6709 1046.81 26.7825 1046.72 26.8764C1046.63 26.9703 1046.51 27.0445 1046.39 27.0948C1046.27 27.1451 1046.14 27.1704 1046 27.1693C1045.87 27.1681 1045.74 27.1405 1045.62 27.0881C1045.5 27.0357 1045.39 26.9595 1045.29 26.864L1039.64 21.207C1039.45 21.0195 1039.34 20.7652 1039.34 20.5C1039.34 20.2348 1039.45 19.9805 1039.64 19.793L1045.29 14.136C1045.48 13.9538 1045.73 13.853 1046 13.8553C1046.26 13.8576 1046.51 13.9628 1046.69 14.1482C1046.88 14.3336 1046.99 14.5844 1046.99 14.8466C1046.99 15.1088 1046.89 15.3614 1046.71 15.55L1041.76 20.5Z" fill="#94A3B8"/>
<path d="M1073.31 20.571L1068.36 15.621C1068.18 15.4324 1068.08 15.1798 1068.08 14.9176C1068.09 14.6554 1068.19 14.4046 1068.38 14.2192C1068.56 14.0338 1068.81 13.9286 1069.07 13.9263C1069.34 13.924 1069.59 14.0248 1069.78 14.207L1075.44 19.864C1075.62 20.0515 1075.73 20.3058 1075.73 20.571C1075.73 20.8362 1075.62 21.0905 1075.44 21.278L1069.78 26.935C1069.59 27.1172 1069.34 27.218 1069.07 27.2157C1068.81 27.2134 1068.56 27.1082 1068.38 26.9228C1068.19 26.7374 1068.09 26.4866 1068.08 26.2244C1068.08 25.9622 1068.18 25.7096 1068.36 25.521L1073.31 20.571Z" fill="#475569"/>
<rect x="303.515" y="8" width="494.903" height="25" rx="5" fill="#F1F5F9"/>
<path d="M523.031 23.916V20.6523C523.031 20.4023 522.98 20.1855 522.879 20.002C522.781 19.8145 522.633 19.6699 522.434 19.5684C522.234 19.4668 521.988 19.416 521.695 19.416C521.422 19.416 521.182 19.4629 520.975 19.5566C520.771 19.6504 520.611 19.7734 520.494 19.9258C520.381 20.0781 520.324 20.2422 520.324 20.418H519.24C519.24 20.1914 519.299 19.9668 519.416 19.7441C519.533 19.5215 519.701 19.3203 519.92 19.1406C520.143 18.957 520.408 18.8125 520.717 18.707C521.029 18.5977 521.377 18.543 521.76 18.543C522.221 18.543 522.627 18.6211 522.979 18.7773C523.334 18.9336 523.611 19.1699 523.811 19.4863C524.014 19.7988 524.115 20.1914 524.115 20.6641V23.6172C524.115 23.8281 524.133 24.0527 524.168 24.291C524.207 24.5293 524.264 24.7344 524.338 24.9062V25H523.207C523.152 24.875 523.109 24.709 523.078 24.502C523.047 24.291 523.031 24.0957 523.031 23.916ZM523.219 21.1562L523.23 21.918H522.135C521.826 21.918 521.551 21.9434 521.309 21.9941C521.066 22.041 520.863 22.1133 520.699 22.2109C520.535 22.3086 520.41 22.4316 520.324 22.5801C520.238 22.7246 520.195 22.8945 520.195 23.0898C520.195 23.2891 520.24 23.4707 520.33 23.6348C520.42 23.7988 520.555 23.9297 520.734 24.0273C520.918 24.1211 521.143 24.168 521.408 24.168C521.74 24.168 522.033 24.0977 522.287 23.957C522.541 23.8164 522.742 23.6445 522.891 23.4414C523.043 23.2383 523.125 23.041 523.137 22.8496L523.6 23.3711C523.572 23.5352 523.498 23.7168 523.377 23.916C523.256 24.1152 523.094 24.3066 522.891 24.4902C522.691 24.6699 522.453 24.8203 522.176 24.9414C521.902 25.0586 521.594 25.1172 521.25 25.1172C520.82 25.1172 520.443 25.0332 520.119 24.8652C519.799 24.6973 519.549 24.4727 519.369 24.1914C519.193 23.9062 519.105 23.5879 519.105 23.2363C519.105 22.8965 519.172 22.5977 519.305 22.3398C519.438 22.0781 519.629 21.8613 519.879 21.6895C520.129 21.5137 520.43 21.3809 520.781 21.291C521.133 21.2012 521.525 21.1562 521.959 21.1562H523.219ZM526.904 19.8789V27.4375H525.814V18.6602H526.811L526.904 19.8789ZM531.176 21.7773V21.9004C531.176 22.3613 531.121 22.7891 531.012 23.1836C530.902 23.5742 530.742 23.9141 530.531 24.2031C530.324 24.4922 530.068 24.7168 529.764 24.877C529.459 25.0371 529.109 25.1172 528.715 25.1172C528.312 25.1172 527.957 25.0508 527.648 24.918C527.34 24.7852 527.078 24.5918 526.863 24.3379C526.648 24.084 526.477 23.7793 526.348 23.4238C526.223 23.0684 526.137 22.668 526.09 22.2227V21.5664C526.137 21.0977 526.225 20.6777 526.354 20.3066C526.482 19.9355 526.652 19.6191 526.863 19.3574C527.078 19.0918 527.338 18.8906 527.643 18.7539C527.947 18.6133 528.299 18.543 528.697 18.543C529.096 18.543 529.449 18.6211 529.758 18.7773C530.066 18.9297 530.326 19.1484 530.537 19.4336C530.748 19.7188 530.906 20.0605 531.012 20.459C531.121 20.8535 531.176 21.293 531.176 21.7773ZM530.086 21.9004V21.7773C530.086 21.4609 530.053 21.1641 529.986 20.8867C529.92 20.6055 529.816 20.3594 529.676 20.1484C529.539 19.9336 529.363 19.7656 529.148 19.6445C528.934 19.5195 528.678 19.457 528.381 19.457C528.107 19.457 527.869 19.5039 527.666 19.5977C527.467 19.6914 527.297 19.8184 527.156 19.9785C527.016 20.1348 526.9 20.3145 526.811 20.5176C526.725 20.7168 526.66 20.9238 526.617 21.1387V22.6562C526.695 22.9297 526.805 23.1875 526.945 23.4297C527.086 23.668 527.273 23.8613 527.508 24.0098C527.742 24.1543 528.037 24.2266 528.393 24.2266C528.686 24.2266 528.938 24.166 529.148 24.0449C529.363 23.9199 529.539 23.75 529.676 23.5352C529.816 23.3203 529.92 23.0742 529.986 22.7969C530.053 22.5156 530.086 22.2168 530.086 21.9004ZM533.643 19.8789V27.4375H532.553V18.6602H533.549L533.643 19.8789ZM537.914 21.7773V21.9004C537.914 22.3613 537.859 22.7891 537.75 23.1836C537.641 23.5742 537.48 23.9141 537.27 24.2031C537.062 24.4922 536.807 24.7168 536.502 24.877C536.197 25.0371 535.848 25.1172 535.453 25.1172C535.051 25.1172 534.695 25.0508 534.387 24.918C534.078 24.7852 533.816 24.5918 533.602 24.3379C533.387 24.084 533.215 23.7793 533.086 23.4238C532.961 23.0684 532.875 22.668 532.828 22.2227V21.5664C532.875 21.0977 532.963 20.6777 533.092 20.3066C533.221 19.9355 533.391 19.6191 533.602 19.3574C533.816 19.0918 534.076 18.8906 534.381 18.7539C534.686 18.6133 535.037 18.543 535.436 18.543C535.834 18.543 536.188 18.6211 536.496 18.7773C536.805 18.9297 537.064 19.1484 537.275 19.4336C537.486 19.7188 537.645 20.0605 537.75 20.459C537.859 20.8535 537.914 21.293 537.914 21.7773ZM536.824 21.9004V21.7773C536.824 21.4609 536.791 21.1641 536.725 20.8867C536.658 20.6055 536.555 20.3594 536.414 20.1484C536.277 19.9336 536.102 19.7656 535.887 19.6445C535.672 19.5195 535.416 19.457 535.119 19.457C534.846 19.457 534.607 19.5039 534.404 19.5977C534.205 19.6914 534.035 19.8184 533.895 19.9785C533.754 20.1348 533.639 20.3145 533.549 20.5176C533.463 20.7168 533.398 20.9238 533.355 21.1387V22.6562C533.434 22.9297 533.543 23.1875 533.684 23.4297C533.824 23.668 534.012 23.8613 534.246 24.0098C534.48 24.1543 534.775 24.2266 535.131 24.2266C535.424 24.2266 535.676 24.166 535.887 24.0449C536.102 23.9199 536.277 23.75 536.414 23.5352C536.555 23.3203 536.658 23.0742 536.725 22.7969C536.791 22.5156 536.824 22.2168 536.824 21.9004ZM539.314 24.4258C539.314 24.2422 539.371 24.0879 539.484 23.9629C539.602 23.834 539.77 23.7695 539.988 23.7695C540.207 23.7695 540.373 23.834 540.486 23.9629C540.604 24.0879 540.662 24.2422 540.662 24.4258C540.662 24.6055 540.604 24.7578 540.486 24.8828C540.373 25.0078 540.207 25.0703 539.988 25.0703C539.77 25.0703 539.602 25.0078 539.484 24.8828C539.371 24.7578 539.314 24.6055 539.314 24.4258ZM544.066 23.875L545.695 18.6602H546.41L546.27 19.6973L544.611 25H543.914L544.066 23.875ZM542.971 18.6602L544.359 23.9336L544.459 25H543.727L541.887 18.6602H542.971ZM547.969 23.8926L549.293 18.6602H550.371L548.531 25H547.805L547.969 23.8926ZM546.568 18.6602L548.162 23.7871L548.344 25H547.652L545.947 19.6855L545.807 18.6602H546.568ZM554.115 25.1172C553.674 25.1172 553.273 25.043 552.914 24.8945C552.559 24.7422 552.252 24.5293 551.994 24.2559C551.74 23.9824 551.545 23.6582 551.408 23.2832C551.271 22.9082 551.203 22.498 551.203 22.0527V21.8066C551.203 21.291 551.279 20.832 551.432 20.4297C551.584 20.0234 551.791 19.6797 552.053 19.3984C552.314 19.1172 552.611 18.9043 552.943 18.7598C553.275 18.6152 553.619 18.543 553.975 18.543C554.428 18.543 554.818 18.6211 555.146 18.7773C555.479 18.9336 555.75 19.1523 555.961 19.4336C556.172 19.7109 556.328 20.0391 556.43 20.418C556.531 20.793 556.582 21.2031 556.582 21.6484V22.1348H551.848V21.25H555.498V21.168C555.482 20.8867 555.424 20.6133 555.322 20.3477C555.225 20.082 555.068 19.8633 554.854 19.6914C554.639 19.5195 554.346 19.4336 553.975 19.4336C553.729 19.4336 553.502 19.4863 553.295 19.5918C553.088 19.6934 552.91 19.8457 552.762 20.0488C552.613 20.252 552.498 20.5 552.416 20.793C552.334 21.0859 552.293 21.4238 552.293 21.8066V22.0527C552.293 22.3535 552.334 22.6367 552.416 22.9023C552.502 23.1641 552.625 23.3945 552.785 23.5938C552.949 23.793 553.146 23.9492 553.377 24.0625C553.611 24.1758 553.877 24.2324 554.174 24.2324C554.557 24.2324 554.881 24.1543 555.146 23.998C555.412 23.8418 555.645 23.6328 555.844 23.3711L556.5 23.8926C556.363 24.0996 556.189 24.2969 555.979 24.4844C555.768 24.6719 555.508 24.8242 555.199 24.9414C554.895 25.0586 554.533 25.1172 554.115 25.1172ZM560.479 25.1172C560.037 25.1172 559.637 25.043 559.277 24.8945C558.922 24.7422 558.615 24.5293 558.357 24.2559C558.104 23.9824 557.908 23.6582 557.771 23.2832C557.635 22.9082 557.566 22.498 557.566 22.0527V21.8066C557.566 21.291 557.643 20.832 557.795 20.4297C557.947 20.0234 558.154 19.6797 558.416 19.3984C558.678 19.1172 558.975 18.9043 559.307 18.7598C559.639 18.6152 559.982 18.543 560.338 18.543C560.791 18.543 561.182 18.6211 561.51 18.7773C561.842 18.9336 562.113 19.1523 562.324 19.4336C562.535 19.7109 562.691 20.0391 562.793 20.418C562.895 20.793 562.945 21.2031 562.945 21.6484V22.1348H558.211V21.25H561.861V21.168C561.846 20.8867 561.787 20.6133 561.686 20.3477C561.588 20.082 561.432 19.8633 561.217 19.6914C561.002 19.5195 560.709 19.4336 560.338 19.4336C560.092 19.4336 559.865 19.4863 559.658 19.5918C559.451 19.6934 559.273 19.8457 559.125 20.0488C558.977 20.252 558.861 20.5 558.779 20.793C558.697 21.0859 558.656 21.4238 558.656 21.8066V22.0527C558.656 22.3535 558.697 22.6367 558.779 22.9023C558.865 23.1641 558.988 23.3945 559.148 23.5938C559.312 23.793 559.51 23.9492 559.74 24.0625C559.975 24.1758 560.24 24.2324 560.537 24.2324C560.92 24.2324 561.244 24.1543 561.51 23.998C561.775 23.8418 562.008 23.6328 562.207 23.3711L562.863 23.8926C562.727 24.0996 562.553 24.2969 562.342 24.4844C562.131 24.6719 561.871 24.8242 561.562 24.9414C561.258 25.0586 560.896 25.1172 560.479 25.1172ZM564.205 16H565.295V23.7695L565.201 25H564.205V16ZM569.578 21.7773V21.9004C569.578 22.3613 569.523 22.7891 569.414 23.1836C569.305 23.5742 569.145 23.9141 568.934 24.2031C568.723 24.4922 568.465 24.7168 568.16 24.877C567.855 25.0371 567.506 25.1172 567.111 25.1172C566.709 25.1172 566.355 25.0488 566.051 24.9121C565.75 24.7715 565.496 24.5703 565.289 24.3086C565.082 24.0469 564.916 23.7305 564.791 23.3594C564.67 22.9883 564.586 22.5703 564.539 22.1055V21.5664C564.586 21.0977 564.67 20.6777 564.791 20.3066C564.916 19.9355 565.082 19.6191 565.289 19.3574C565.496 19.0918 565.75 18.8906 566.051 18.7539C566.352 18.6133 566.701 18.543 567.1 18.543C567.498 18.543 567.852 18.6211 568.16 18.7773C568.469 18.9297 568.727 19.1484 568.934 19.4336C569.145 19.7188 569.305 20.0605 569.414 20.459C569.523 20.8535 569.578 21.293 569.578 21.7773ZM568.488 21.9004V21.7773C568.488 21.4609 568.459 21.1641 568.4 20.8867C568.342 20.6055 568.248 20.3594 568.119 20.1484C567.99 19.9336 567.82 19.7656 567.609 19.6445C567.398 19.5195 567.139 19.457 566.83 19.457C566.557 19.457 566.318 19.5039 566.115 19.5977C565.916 19.6914 565.746 19.8184 565.605 19.9785C565.465 20.1348 565.35 20.3145 565.26 20.5176C565.174 20.7168 565.109 20.9238 565.066 21.1387V22.5508C565.129 22.8242 565.23 23.0879 565.371 23.3418C565.516 23.5918 565.707 23.7969 565.945 23.957C566.188 24.1172 566.486 24.1973 566.842 24.1973C567.135 24.1973 567.385 24.1387 567.592 24.0215C567.803 23.9004 567.973 23.7344 568.102 23.5234C568.234 23.3125 568.332 23.0684 568.395 22.791C568.457 22.5137 568.488 22.2168 568.488 21.9004ZM570.967 24.4258C570.967 24.2422 571.023 24.0879 571.137 23.9629C571.254 23.834 571.422 23.7695 571.641 23.7695C571.859 23.7695 572.025 23.834 572.139 23.9629C572.256 24.0879 572.314 24.2422 572.314 24.4258C572.314 24.6055 572.256 24.7578 572.139 24.8828C572.025 25.0078 571.859 25.0703 571.641 25.0703C571.422 25.0703 571.254 25.0078 571.137 24.8828C571.023 24.7578 570.967 24.6055 570.967 24.4258ZM577.852 23.916V20.6523C577.852 20.4023 577.801 20.1855 577.699 20.002C577.602 19.8145 577.453 19.6699 577.254 19.5684C577.055 19.4668 576.809 19.416 576.516 19.416C576.242 19.416 576.002 19.4629 575.795 19.5566C575.592 19.6504 575.432 19.7734 575.314 19.9258C575.201 20.0781 575.145 20.2422 575.145 20.418H574.061C574.061 20.1914 574.119 19.9668 574.236 19.7441C574.354 19.5215 574.521 19.3203 574.74 19.1406C574.963 18.957 575.229 18.8125 575.537 18.707C575.85 18.5977 576.197 18.543 576.58 18.543C577.041 18.543 577.447 18.6211 577.799 18.7773C578.154 18.9336 578.432 19.1699 578.631 19.4863C578.834 19.7988 578.936 20.1914 578.936 20.6641V23.6172C578.936 23.8281 578.953 24.0527 578.988 24.291C579.027 24.5293 579.084 24.7344 579.158 24.9062V25H578.027C577.973 24.875 577.93 24.709 577.898 24.502C577.867 24.291 577.852 24.0957 577.852 23.916ZM578.039 21.1562L578.051 21.918H576.955C576.646 21.918 576.371 21.9434 576.129 21.9941C575.887 22.041 575.684 22.1133 575.52 22.2109C575.355 22.3086 575.23 22.4316 575.145 22.5801C575.059 22.7246 575.016 22.8945 575.016 23.0898C575.016 23.2891 575.061 23.4707 575.15 23.6348C575.24 23.7988 575.375 23.9297 575.555 24.0273C575.738 24.1211 575.963 24.168 576.229 24.168C576.561 24.168 576.854 24.0977 577.107 23.957C577.361 23.8164 577.562 23.6445 577.711 23.4414C577.863 23.2383 577.945 23.041 577.957 22.8496L578.42 23.3711C578.393 23.5352 578.318 23.7168 578.197 23.916C578.076 24.1152 577.914 24.3066 577.711 24.4902C577.512 24.6699 577.273 24.8203 576.996 24.9414C576.723 25.0586 576.414 25.1172 576.07 25.1172C575.641 25.1172 575.264 25.0332 574.939 24.8652C574.619 24.6973 574.369 24.4727 574.189 24.1914C574.014 23.9062 573.926 23.5879 573.926 23.2363C573.926 22.8965 573.992 22.5977 574.125 22.3398C574.258 22.0781 574.449 21.8613 574.699 21.6895C574.949 21.5137 575.25 21.3809 575.602 21.291C575.953 21.2012 576.346 21.1562 576.779 21.1562H578.039ZM581.818 18.6602V25H580.729V18.6602H581.818ZM580.646 16.9785C580.646 16.8027 580.699 16.6543 580.805 16.5332C580.914 16.4121 581.074 16.3516 581.285 16.3516C581.492 16.3516 581.65 16.4121 581.76 16.5332C581.873 16.6543 581.93 16.8027 581.93 16.9785C581.93 17.1465 581.873 17.291 581.76 17.4121C581.65 17.5293 581.492 17.5879 581.285 17.5879C581.074 17.5879 580.914 17.5293 580.805 17.4121C580.699 17.291 580.646 17.1465 580.646 16.9785Z" fill="#94A3B8"/>
<rect y="41" width="1100" height="661" fill="#DBEAFE"/>
<path d="M0 41.8813H184.255V702H0V41.8813Z" fill="#BFDBFE"/>
<path d="M22.1104 104.456C22.1104 98.615 27.06 93.88 33.1656 93.88H151.089C157.194 93.88 162.144 98.615 162.144 104.456V104.456C162.144 110.297 157.194 115.032 151.089 115.032H33.1656C27.06 115.032 22.1104 110.297 22.1104 104.456V104.456Z" fill="#93C5FD"/>
<path d="M66.3315 178.488C66.3315 175.568 68.8064 173.2 71.8592 173.2H163.986C167.039 173.2 169.514 175.568 169.514 178.488V178.488C169.514 181.408 167.039 183.776 163.986 183.776H71.8592C68.8063 183.776 66.3315 181.408 66.3315 178.488V178.488Z" fill="white"/>
<path d="M66.3315 234.893C66.3315 231.973 68.8064 229.605 71.8592 229.605H135.427C138.48 229.605 140.955 231.973 140.955 234.893V234.893C140.955 237.814 138.48 240.181 135.427 240.181H71.8592C68.8064 240.181 66.3315 237.814 66.3315 234.893V234.893Z" fill="white"/>
<path d="M66.3315 291.299C66.3315 288.378 68.8064 286.011 71.8592 286.011H151.089C154.141 286.011 156.616 288.378 156.616 291.299V291.299C156.616 294.219 154.141 296.587 151.089 296.587H71.8592C68.8063 296.587 66.3315 294.219 66.3315 291.299V291.299Z" fill="white"/>
<path fill-rule="evenodd" clip-rule="evenodd" d="M36.8507 189.945C43.4652 189.945 48.8273 184.816 48.8273 178.488C48.8273 172.16 43.4652 167.031 36.8507 167.031C30.2363 167.031 24.8742 172.16 24.8742 178.488C24.8742 184.816 30.2363 189.945 36.8507 189.945ZM36.8507 192.589C44.9916 192.589 51.5911 186.276 51.5911 178.488C51.5911 170.7 44.9916 164.387 36.8507 164.387C28.7098 164.387 22.1104 170.7 22.1104 178.488C22.1104 186.276 28.7098 192.589 36.8507 192.589Z" fill="#93C5FD"/>
<path d="M243.216 104.456C243.216 100.562 246.516 97.4053 250.586 97.4053H357.454C361.525 97.4053 364.824 100.562 364.824 104.456V104.456C364.824 108.35 361.525 111.507 357.454 111.507H250.586C246.516 111.507 243.216 108.35 243.216 104.456V104.456Z" fill="#BFDBFE"/>
<path fill-rule="evenodd" clip-rule="evenodd" d="M438.987 388.739C439.041 383.712 443.216 379.432 448.581 379.432C451.874 379.432 454.297 380.991 455.843 382.46C456.273 382.869 456.643 383.276 456.952 383.653C457.261 383.276 457.631 382.869 458.061 382.46C459.607 380.991 462.03 379.432 465.323 379.432C470.688 379.432 474.863 383.712 474.917 388.739L474.917 388.74C475.019 398.544 466.784 405.327 458.507 410.702C458.048 411.001 457.507 411.16 456.952 411.16C456.398 411.16 455.856 411.001 455.397 410.702C447.119 405.327 438.884 398.544 438.987 388.74L438.987 388.739ZM458.186 386.636C457.952 387.082 457.474 387.364 456.952 387.364C456.43 387.364 455.952 387.082 455.718 386.636C455.717 386.636 455.717 386.635 455.716 386.633C455.714 386.63 455.712 386.625 455.708 386.618C455.706 386.614 455.703 386.61 455.701 386.605C455.685 386.577 455.659 386.532 455.623 386.472C455.551 386.351 455.438 386.17 455.284 385.951C454.975 385.51 454.512 384.921 453.896 384.336C452.658 383.16 450.895 382.076 448.581 382.076C444.833 382.076 441.791 385.09 441.751 388.766M458.186 386.636C458.187 386.636 458.187 386.635 458.188 386.633C458.191 386.629 458.196 386.619 458.204 386.605C458.219 386.577 458.245 386.532 458.281 386.472C458.353 386.351 458.466 386.17 458.62 385.951C458.929 385.51 459.393 384.921 460.008 384.336C461.246 383.16 463.009 382.076 465.323 382.076C469.071 382.076 472.114 385.089 472.153 388.766C472.239 397.028 465.303 403.093 456.953 408.515L456.952 408.516L456.951 408.515C448.6 403.093 441.664 397.028 441.751 388.766" fill="white"/>
<path d="M243.216 395.296C243.216 391.402 246.516 388.245 250.586 388.245H300.335C304.406 388.245 307.705 391.402 307.705 395.296V395.296C307.705 399.19 304.406 402.347 300.335 402.347H250.586C246.516 402.347 243.216 399.19 243.216 395.296V395.296Z" fill="#BFDBFE"/>
<path d="M322.446 395.296C322.446 391.402 325.746 388.245 329.816 388.245H412.731C416.801 388.245 420.101 391.402 420.101 395.296V395.296C420.101 399.19 416.801 402.347 412.731 402.347H329.816C325.746 402.347 322.446 399.19 322.446 395.296V395.296Z" fill="#BFDBFE"/>
<path d="M243.216 464.04C243.216 461.12 245.691 458.752 248.744 458.752H326.131C329.184 458.752 331.659 461.12 331.659 464.04V464.04C331.659 466.96 329.184 469.328 326.131 469.328H248.744C245.691 469.328 243.216 466.96 243.216 464.04V464.04Z" fill="white"/>
<path d="M243.216 488.717C243.216 485.797 245.691 483.429 248.744 483.429H367.588C370.641 483.429 373.116 485.797 373.116 488.717V488.717C373.116 491.638 370.641 494.005 367.588 494.005H248.744C245.691 494.005 243.216 491.638 243.216 488.717V488.717Z" fill="white"/>
<path d="M346.399 464.04C346.399 461.12 348.874 458.752 351.927 458.752H444.054C447.107 458.752 449.582 461.12 449.582 464.04V464.04C449.582 466.96 447.107 469.328 444.054 469.328H351.927C348.874 469.328 346.399 466.96 346.399 464.04V464.04Z" fill="white"/>
<path d="M243.216 173.2C243.216 170.28 245.691 167.912 248.744 167.912H326.131C329.184 167.912 331.659 170.28 331.659 173.2V173.2C331.659 176.12 329.184 178.488 326.131 178.488H248.744C245.691 178.488 243.216 176.12 243.216 173.2V173.2Z" fill="white"/>
<path d="M243.216 197.877C243.216 194.957 245.691 192.589 248.744 192.589H439.447C442.5 192.589 444.975 194.957 444.975 197.877V197.877C444.975 200.798 442.5 203.165 439.447 203.165H248.744C245.691 203.165 243.216 200.798 243.216 197.877V197.877Z" fill="white"/>
<path d="M346.399 173.2C346.399 170.28 348.874 167.912 351.927 167.912H561.977C565.03 167.912 567.504 170.28 567.504 173.2V173.2C567.504 176.12 565.03 178.488 561.977 178.488H351.927C348.874 178.488 346.399 176.12 346.399 173.2V173.2Z" fill="white"/>
<path fill-rule="evenodd" clip-rule="evenodd" d="M49.7487 223.436H25.7956V246.351H49.7487V223.436ZM23.0317 220.792V248.995H52.5125V220.792H23.0317Z" fill="#60A5FA"/>
<g clip-path="url(#clip1_5139_3718)">
<rect x="638.442" y="104.456" width="184.255" height="241.485" rx="20" fill="white"/>
<path d="M761.18 346.15C761.18 407.257 709.826 456.794 646.479 456.794C583.131 456.794 531.778 407.257 531.778 346.15C531.778 285.043 583.131 235.506 646.479 235.506C709.826 235.506 761.18 285.043 761.18 346.15Z" fill="#FACC15"/>
<path fill-rule="evenodd" clip-rule="evenodd" d="M848.276 198.504L788.343 141.17L728.411 198.504L788.343 255.838L848.276 198.504ZM788.343 136.184L723.199 198.504L788.343 260.823L853.487 198.504L788.343 136.184Z" fill="#BFDBFE"/>
</g>
<path d="M37.7721 278.96L52.5125 303.384H23.0317L37.7721 278.96Z" fill="#93C5FD"/>
<rect x="852.178" y="104.456" width="184.255" height="178.029" rx="20" fill="white"/>
<path fill-rule="evenodd" clip-rule="evenodd" d="M935.063 237.2C953.433 237.2 968.199 223.085 968.199 205.821C968.199 188.558 953.433 174.443 935.063 174.443C916.693 174.443 901.927 188.558 901.927 205.821C901.927 223.085 916.693 237.2 935.063 237.2ZM935.063 246.013C958.451 246.013 977.412 228.018 977.412 205.821C977.412 183.624 958.451 165.63 935.063 165.63C911.674 165.63 892.714 183.624 892.714 205.821C892.714 228.018 911.674 246.013 935.063 246.013Z" fill="#BFDBFE"/>
<path d="M954.31 193.1L966.493 149.602L999.779 181.444L954.31 193.1Z" fill="#FACC15"/>
<g clip-path="url(#clip2_5139_3718)">
<rect x="638.442" y="374.144" width="184.255" height="269.688" rx="20" fill="white"/>
<path fill-rule="evenodd" clip-rule="evenodd" d="M811.181 678.204C862.825 678.204 904.69 638.153 904.69 588.749C904.69 539.344 862.825 499.293 811.181 499.293C759.537 499.293 717.672 539.344 717.672 588.749C717.672 638.153 759.537 678.204 811.181 678.204ZM811.181 687.017C867.913 687.017 913.903 643.021 913.903 588.749C913.903 534.476 867.913 490.48 811.181 490.48C754.449 490.48 708.459 534.476 708.459 588.749C708.459 643.021 754.449 687.017 811.181 687.017Z" fill="#FACC15"/>
<path d="M735.176 454.545C735.176 471.204 720.946 484.71 703.392 484.71C685.839 484.71 671.608 471.204 671.608 454.545C671.608 437.885 685.839 424.38 703.392 424.38C720.946 424.38 735.176 437.885 735.176 454.545Z" fill="#BFDBFE"/>
<path fill-rule="evenodd" clip-rule="evenodd" d="M703.392 482.066C719.44 482.066 732.412 469.724 732.412 454.545C732.412 439.365 719.44 427.024 703.392 427.024C687.344 427.024 674.372 439.365 674.372 454.545C674.372 469.724 687.344 482.066 703.392 482.066ZM703.392 484.71C720.946 484.71 735.176 471.204 735.176 454.545C735.176 437.885 720.946 424.38 703.392 424.38C685.839 424.38 671.608 437.885 671.608 454.545C671.608 471.204 685.839 484.71 703.392 484.71Z" fill="#BFDBFE"/>
</g>
<g clip-path="url(#clip3_5139_3718)">
<rect x="852.178" y="310.688" width="184.255" height="301.416" rx="20" fill="white"/>
<path d="M1078.81 527.937C1078.81 549.597 1060.66 567.156 1038.27 567.156C1015.89 567.156 997.739 549.597 997.739 527.937C997.739 506.276 1015.89 488.717 1038.27 488.717C1060.66 488.717 1078.81 506.276 1078.81 527.937Z" fill="white"/>
<path fill-rule="evenodd" clip-rule="evenodd" d="M1038.27 564.512C1059.11 564.512 1076.05 548.165 1076.05 527.937C1076.05 507.708 1059.11 491.361 1038.27 491.361C1017.44 491.361 1000.5 507.708 1000.5 527.937C1000.5 548.165 1017.44 564.512 1038.27 564.512ZM1038.27 567.156C1060.66 567.156 1078.81 549.597 1078.81 527.937C1078.81 506.276 1060.66 488.717 1038.27 488.717C1015.89 488.717 997.739 506.276 997.739 527.937C997.739 549.597 1015.89 567.156 1038.27 567.156Z" fill="#BFDBFE"/>
<path d="M1005.11 416.889C1005.11 445.85 980.774 469.328 950.754 469.328C920.735 469.328 896.399 445.85 896.399 416.889C896.399 387.927 920.735 364.449 950.754 364.449C980.774 364.449 1005.11 387.927 1005.11 416.889Z" fill="#BFDBFE"/>
<path d="M886.265 517.801L888.864 524.955L896.779 525.109L890.47 529.685L892.763 536.933L886.265 532.608L879.767 536.933L882.059 529.685L875.75 525.109L883.665 524.955L886.265 517.801Z" fill="#FACC15"/>
<path d="M924.037 517.801L926.636 524.955L934.551 525.109L928.243 529.685L930.535 536.933L924.037 532.608L917.539 536.933L919.831 529.685L913.523 525.109L921.438 524.955L924.037 517.801Z" fill="#FACC15"/>
<path d="M961.809 517.801L964.408 524.955L972.323 525.109L966.015 529.685L968.307 536.933L961.809 532.608L955.311 536.933L957.603 529.685L951.295 525.109L959.21 524.955L961.809 517.801Z" fill="#FACC15"/>
<path d="M999.581 517.801L1002.18 524.955L1010.1 525.109L1003.79 529.685L1006.08 536.933L999.581 532.608L993.083 536.933L995.375 529.685L989.067 525.109L996.982 524.955L999.581 517.801Z" fill="#FACC15"/>
<path d="M1037.35 517.801L1039.95 524.955L1047.87 525.109L1041.56 529.685L1043.85 536.933L1037.35 532.608L1030.86 536.933L1033.15 529.685L1026.84 525.109L1034.75 524.955L1037.35 517.801Z" fill="#FACC15"/>
</g>
</g>
<defs>
<clipPath id="clip0_5139_3718">
<rect width="1100" height="702" rx="20" fill="white"/>
</clipPath>
<clipPath id="clip1_5139_3718">
<rect x="638.442" y="104.456" width="184.255" height="241.485" rx="20" fill="white"/>
</clipPath>
<clipPath id="clip2_5139_3718">
<rect x="638.442" y="374.144" width="184.255" height="269.688" rx="20" fill="white"/>
</clipPath>
<clipPath id="clip3_5139_3718">
<rect x="852.178" y="310.688" width="184.255" height="301.416" rx="20" fill="white"/>
</clipPath>
</defs>
</svg>
