<svg width="750" height="480" viewBox="0 0 750 480" fill="none" xmlns="http://www.w3.org/2000/svg">
<g clip-path="url(#clip0_5144_3802)">
<rect width="750" height="480" rx="20" fill="white"/>
<path d="M21.0002 24.6937C18.6989 24.6937 16.8335 22.8283 16.8335 20.527C16.8335 18.2258 18.6989 16.3604 21.0002 16.3604C23.3014 16.3604 25.1668 18.2258 25.1668 20.527C25.1668 22.8283 23.3014 24.6937 21.0002 24.6937Z" fill="#E11D48"/>
<path d="M36.0002 24.6937C33.6989 24.6937 31.8335 22.8283 31.8335 20.527C31.8335 18.2258 33.6989 16.3604 36.0002 16.3604C38.3014 16.3604 40.1668 18.2258 40.1668 20.527C40.1668 22.8283 38.3014 24.6937 36.0002 24.6937Z" fill="#FBBF24"/>
<path d="M51.0002 24.6937C48.6989 24.6937 46.8335 22.8283 46.8335 20.527C46.8335 18.2258 48.6989 16.3604 51.0002 16.3604C53.3014 16.3604 55.1668 18.2258 55.1668 20.527C55.1668 22.8283 53.3014 24.6937 51.0002 24.6937Z" fill="#22C55E"/>
<g filter="url(#filter0_dd_5144_3802)">
<rect y="41" width="750" height="439" fill="#DBEAFE" shape-rendering="crispEdges"/>
<path d="M0 41.5854H125.628V480H0V41.5854Z" fill="#BFDBFE"/>
<path d="M15.0752 83.1441C15.0752 79.2649 18.4499 76.1201 22.6129 76.1201H103.015C107.178 76.1201 110.553 79.2649 110.553 83.1441V83.1441C110.553 87.0234 107.178 90.1681 103.015 90.1681H22.6129C18.4499 90.1681 15.0752 87.0234 15.0752 83.1441V83.1441Z" fill="#93C5FD"/>
<path d="M45.2261 132.312C45.2261 130.372 46.9134 128.8 48.9949 128.8H111.809C113.89 128.8 115.578 130.372 115.578 132.312V132.312C115.578 134.252 113.89 135.824 111.809 135.824H48.9949C46.9134 135.824 45.2261 134.252 45.2261 132.312V132.312Z" fill="white"/>
<path d="M45.2261 169.773C45.2261 167.834 46.9134 166.261 48.9949 166.261H92.3366C94.4181 166.261 96.1055 167.834 96.1055 169.773V169.773C96.1055 171.713 94.4181 173.285 92.3366 173.285H48.9949C46.9134 173.285 45.2261 171.713 45.2261 169.773V169.773Z" fill="white"/>
<path d="M45.2261 207.235C45.2261 205.295 46.9134 203.723 48.9949 203.723H103.015C105.096 203.723 106.784 205.295 106.784 207.235V207.235C106.784 209.174 105.096 210.747 103.015 210.747H48.9949C46.9134 210.747 45.2261 209.174 45.2261 207.235V207.235Z" fill="white"/>
<path fill-rule="evenodd" clip-rule="evenodd" d="M25.1254 139.921C29.6353 139.921 33.2913 136.515 33.2913 132.312C33.2913 128.11 29.6353 124.703 25.1254 124.703C20.6156 124.703 16.9596 128.11 16.9596 132.312C16.9596 136.515 20.6156 139.921 25.1254 139.921ZM25.1254 141.677C30.676 141.677 35.1757 137.484 35.1757 132.312C35.1757 127.14 30.676 122.947 25.1254 122.947C19.5748 122.947 15.0752 127.14 15.0752 132.312C15.0752 137.484 19.5748 141.677 25.1254 141.677Z" fill="#93C5FD"/>
<path d="M165.829 83.1441C165.829 80.5579 168.079 78.4614 170.854 78.4614H243.719C246.494 78.4614 248.744 80.5579 248.744 83.1441V83.1441C248.744 85.7303 246.494 87.8268 243.719 87.8268H170.854C168.079 87.8268 165.829 85.7303 165.829 83.1441V83.1441Z" fill="#BFDBFE"/>
<path fill-rule="evenodd" clip-rule="evenodd" d="M299.309 271.95C299.346 268.611 302.192 265.768 305.851 265.768C308.096 265.768 309.748 266.804 310.802 267.779C311.095 268.051 311.347 268.321 311.558 268.571C311.769 268.321 312.021 268.051 312.314 267.779C313.368 266.804 315.02 265.768 317.265 265.768C320.924 265.768 323.77 268.611 323.807 271.95L323.807 271.95C323.876 278.461 318.262 282.966 312.618 286.536C312.305 286.734 311.936 286.84 311.558 286.84C311.18 286.84 310.811 286.734 310.498 286.536C304.854 282.966 299.239 278.461 299.309 271.95L299.309 271.95ZM312.4 270.553C312.24 270.849 311.914 271.036 311.558 271.036C311.202 271.036 310.876 270.849 310.716 270.553C310.716 270.553 310.716 270.552 310.715 270.551C310.714 270.549 310.712 270.545 310.71 270.541C310.708 270.538 310.706 270.535 310.705 270.532C310.694 270.514 310.676 270.483 310.652 270.443C310.602 270.363 310.525 270.243 310.421 270.098C310.21 269.804 309.894 269.414 309.474 269.025C308.63 268.244 307.428 267.524 305.851 267.524C303.295 267.524 301.221 269.526 301.194 271.967M312.4 270.553C312.4 270.553 312.4 270.552 312.401 270.551C312.402 270.548 312.406 270.541 312.411 270.532C312.422 270.514 312.439 270.483 312.464 270.443C312.513 270.363 312.591 270.243 312.695 270.098C312.906 269.804 313.222 269.414 313.642 269.025C314.486 268.244 315.688 267.524 317.265 267.524C319.821 267.524 321.895 269.525 321.922 271.967C321.981 277.454 317.252 281.482 311.559 285.084L311.558 285.084L311.557 285.084C305.863 281.483 301.134 277.454 301.194 271.968" fill="white"/>
<path d="M165.829 276.304C165.829 273.718 168.079 271.621 170.854 271.621H204.774C207.549 271.621 209.799 273.718 209.799 276.304V276.304C209.799 278.89 207.549 280.987 204.774 280.987H170.854C168.079 280.987 165.829 278.89 165.829 276.304V276.304Z" fill="#BFDBFE"/>
<path d="M219.849 276.304C219.849 273.718 222.099 271.621 224.874 271.621H281.407C284.182 271.621 286.432 273.718 286.432 276.304V276.304C286.432 278.89 284.182 280.987 281.407 280.987H224.874C222.099 280.987 219.849 278.89 219.849 276.304V276.304Z" fill="#BFDBFE"/>
<path d="M165.829 321.96C165.829 320.02 167.516 318.448 169.598 318.448H222.362C224.443 318.448 226.131 320.02 226.131 321.96V321.96C226.131 323.9 224.443 325.472 222.362 325.472H169.598C167.516 325.472 165.829 323.9 165.829 321.96V321.96Z" fill="white"/>
<path d="M165.829 338.349C165.829 336.41 167.516 334.837 169.598 334.837H250.628C252.71 334.837 254.397 336.41 254.397 338.349V338.349C254.397 340.289 252.71 341.861 250.628 341.861H169.598C167.516 341.861 165.829 340.289 165.829 338.349V338.349Z" fill="white"/>
<path d="M236.181 321.96C236.181 320.02 237.868 318.448 239.95 318.448H302.764C304.845 318.448 306.532 320.02 306.532 321.96V321.96C306.532 323.9 304.845 325.472 302.764 325.472H239.95C237.868 325.472 236.181 323.9 236.181 321.96V321.96Z" fill="white"/>
<path d="M165.829 128.8C165.829 126.86 167.516 125.288 169.598 125.288H222.362C224.443 125.288 226.131 126.86 226.131 128.8V128.8C226.131 130.74 224.443 132.312 222.362 132.312H169.598C167.516 132.312 165.829 130.74 165.829 128.8V128.8Z" fill="white"/>
<path d="M165.829 145.189C165.829 143.25 167.516 141.677 169.598 141.677H299.623C301.705 141.677 303.392 143.25 303.392 145.189V145.189C303.392 147.129 301.705 148.701 299.623 148.701H169.598C167.516 148.701 165.829 147.129 165.829 145.189V145.189Z" fill="white"/>
<path d="M236.181 128.8C236.181 126.86 237.868 125.288 239.95 125.288H383.166C385.247 125.288 386.934 126.86 386.934 128.8V128.8C386.934 130.74 385.247 132.312 383.166 132.312H239.95C237.868 132.312 236.181 130.74 236.181 128.8V128.8Z" fill="white"/>
<path fill-rule="evenodd" clip-rule="evenodd" d="M33.9197 162.164H17.588V177.383H33.9197V162.164ZM15.7036 160.408L15.7036 179.139H35.8041V160.408H15.7036Z" fill="#60A5FA"/>
<g clip-path="url(#clip1_5144_3802)">
<rect x="435.302" y="83.144" width="125.628" height="160.381" rx="20" fill="white"/>
<path d="M518.986 243.664C518.986 284.248 483.972 317.148 440.781 317.148C397.589 317.148 362.576 284.248 362.576 243.664C362.576 203.08 397.589 170.18 440.781 170.18C483.972 170.18 518.986 203.08 518.986 243.664Z" fill="#FACC15"/>
<path fill-rule="evenodd" clip-rule="evenodd" d="M578.37 145.605L537.507 107.527L496.644 145.605L537.507 183.684L578.37 145.605ZM537.507 104.216L493.091 145.605L537.507 186.995L581.923 145.605L537.507 104.216Z" fill="#BFDBFE"/>
</g>
<path d="M25.7539 199.04L35.8041 215.261H15.7036L25.7539 199.04Z" fill="#93C5FD"/>
<rect x="581.03" y="83.144" width="125.628" height="118.237" rx="20" fill="white"/>
<path fill-rule="evenodd" clip-rule="evenodd" d="M637.543 171.305C650.068 171.305 660.135 161.931 660.135 150.465C660.135 139 650.068 129.626 637.543 129.626C625.018 129.626 614.95 139 614.95 150.465C614.95 161.931 625.018 171.305 637.543 171.305ZM637.543 177.158C653.489 177.158 666.417 165.207 666.417 150.465C666.417 135.723 653.489 123.772 637.543 123.772C621.596 123.772 608.668 135.723 608.668 150.465C608.668 165.207 621.596 177.158 637.543 177.158Z" fill="#BFDBFE"/>
<path d="M650.666 142.016L658.973 113.127L681.667 134.276L650.666 142.016Z" fill="#FACC15"/>
<g clip-path="url(#clip2_5144_3802)">
<rect x="435.302" y="262.256" width="125.628" height="179.112" rx="20" fill="white"/>
<path fill-rule="evenodd" clip-rule="evenodd" d="M553.078 464.196C588.29 464.196 616.835 437.597 616.835 404.785C616.835 371.973 588.29 345.373 553.078 345.373C517.867 345.373 489.322 371.973 489.322 404.785C489.322 437.597 517.867 464.196 553.078 464.196ZM553.078 470.049C591.759 470.049 623.116 440.829 623.116 404.785C623.116 368.74 591.759 339.52 553.078 339.52C514.397 339.52 483.041 368.74 483.041 404.785C483.041 440.829 514.397 470.049 553.078 470.049Z" fill="#FACC15"/>
<path d="M501.257 315.654C501.257 326.718 491.554 335.688 479.586 335.688C467.617 335.688 457.915 326.718 457.915 315.654C457.915 304.59 467.617 295.62 479.586 295.62C491.554 295.62 501.257 304.59 501.257 315.654Z" fill="#BFDBFE"/>
<path fill-rule="evenodd" clip-rule="evenodd" d="M479.586 333.932C490.528 333.932 499.372 325.735 499.372 315.654C499.372 305.573 490.528 297.376 479.586 297.376C468.644 297.376 459.799 305.573 459.799 315.654C459.799 325.735 468.644 333.932 479.586 333.932ZM479.586 335.688C491.554 335.688 501.257 326.718 501.257 315.654C501.257 304.59 491.554 295.62 479.586 295.62C467.617 295.62 457.915 304.59 457.915 315.654C457.915 326.718 467.617 335.688 479.586 335.688Z" fill="#BFDBFE"/>
</g>
<g clip-path="url(#clip3_5144_3802)">
<rect x="581.03" y="220.112" width="125.628" height="200.184" rx="20" fill="white"/>
<path d="M735.553 364.397C735.553 378.782 723.179 390.444 707.915 390.444C692.65 390.444 680.276 378.782 680.276 364.397C680.276 350.011 692.65 338.349 707.915 338.349C723.179 338.349 735.553 350.011 735.553 364.397Z" fill="white"/>
<path fill-rule="evenodd" clip-rule="evenodd" d="M707.915 388.688C722.118 388.688 733.668 377.831 733.668 364.397C733.668 350.962 722.118 340.105 707.915 340.105C693.711 340.105 682.161 350.962 682.161 364.397C682.161 377.831 693.711 388.688 707.915 388.688ZM707.915 390.444C723.179 390.444 735.553 378.782 735.553 364.397C735.553 350.011 723.179 338.349 707.915 338.349C692.65 338.349 680.276 350.011 680.276 364.397C680.276 378.782 692.65 390.444 707.915 390.444Z" fill="#BFDBFE"/>
<path d="M685.302 290.645C685.302 309.879 668.709 325.472 648.241 325.472C627.774 325.472 611.181 309.879 611.181 290.645C611.181 271.41 627.774 255.817 648.241 255.817C668.709 255.817 685.302 271.41 685.302 290.645Z" fill="#BFDBFE"/>
<path d="M604.272 357.665L606.044 362.416L611.441 362.519L607.139 365.557L608.702 370.372L604.272 367.499L599.841 370.372L601.404 365.557L597.103 362.519L602.5 362.416L604.272 357.665Z" fill="#FACC15"/>
<path d="M630.025 357.665L631.797 362.416L637.194 362.519L632.893 365.557L634.456 370.372L630.025 367.499L625.595 370.372L627.158 365.557L622.856 362.519L628.253 362.416L630.025 357.665Z" fill="#FACC15"/>
<path d="M655.779 357.665L657.551 362.416L662.948 362.519L658.647 365.557L660.21 370.372L655.779 367.499L651.349 370.372L652.912 365.557L648.61 362.519L654.007 362.416L655.779 357.665Z" fill="#FACC15"/>
<path d="M681.533 357.665L683.305 362.416L688.702 362.519L684.401 365.557L685.964 370.372L681.533 367.499L677.102 370.372L678.666 365.557L674.364 362.519L679.761 362.416L681.533 357.665Z" fill="#FACC15"/>
<path d="M707.286 357.665L709.059 362.416L714.455 362.519L710.154 365.557L711.717 370.372L707.286 367.499L702.856 370.372L704.419 365.557L700.118 362.519L705.514 362.416L707.286 357.665Z" fill="#FACC15"/>
</g>
</g>
</g>
<defs>
<filter id="filter0_dd_5144_3802" x="-38" y="26" width="826" height="517" filterUnits="userSpaceOnUse" color-interpolation-filters="sRGB">
<feFlood flood-opacity="0" result="BackgroundImageFix"/>
<feColorMatrix in="SourceAlpha" type="matrix" values="0 0 0 0 0 0 0 0 0 0 0 0 0 0 0 0 0 0 127 0" result="hardAlpha"/>
<feOffset/>
<feGaussianBlur stdDeviation="7.5"/>
<feComposite in2="hardAlpha" operator="out"/>
<feColorMatrix type="matrix" values="0 0 0 0 0 0 0 0 0 0 0 0 0 0 0 0 0 0 0.07 0"/>
<feBlend mode="normal" in2="BackgroundImageFix" result="effect1_dropShadow_5144_3802"/>
<feColorMatrix in="SourceAlpha" type="matrix" values="0 0 0 0 0 0 0 0 0 0 0 0 0 0 0 0 0 0 127 0" result="hardAlpha"/>
<feMorphology radius="12" operator="erode" in="SourceAlpha" result="effect2_dropShadow_5144_3802"/>
<feOffset dy="25"/>
<feGaussianBlur stdDeviation="25"/>
<feColorMatrix type="matrix" values="0 0 0 0 0 0 0 0 0 0 0 0 0 0 0 0 0 0 0.25 0"/>
<feBlend mode="normal" in2="effect1_dropShadow_5144_3802" result="effect2_dropShadow_5144_3802"/>
<feBlend mode="normal" in="SourceGraphic" in2="effect2_dropShadow_5144_3802" result="shape"/>
</filter>
<clipPath id="clip0_5144_3802">
<rect width="750" height="480" rx="20" fill="white"/>
</clipPath>
<clipPath id="clip1_5144_3802">
<rect x="435.302" y="83.144" width="125.628" height="160.381" rx="20" fill="white"/>
</clipPath>
<clipPath id="clip2_5144_3802">
<rect x="435.302" y="262.256" width="125.628" height="179.112" rx="20" fill="white"/>
</clipPath>
<clipPath id="clip3_5144_3802">
<rect x="581.03" y="220.112" width="125.628" height="200.184" rx="20" fill="white"/>
</clipPath>
</defs>
</svg>
